{"title":"tvf.tripling.S01E01.x265[GreatIndiaRipper]","uid":15692531,"size":80885142,"categoryP":"video","categoryS":"tv_shows","magnet":"?xt=urn:btih:9264b4c585c773390e9efbac7f036f465be2bb9d&amp;dn=tvf.tripling.S01E01.x265%5BGreatIndiaRipper%5D&amp;tr=udp%3A%2F%2Ftracker.leechers-paradise.org%3A6969&amp;tr=udp%3A%2F%2Fzer0day.ch%3A1337&amp;tr=udp%3A%2F%2Fopen.demonii.com%3A1337&amp;tr=udp%3A%2F%2Ftracker.coppersurfer.tk%3A6969&amp;tr=udp%3A%2F%2Fexodus.desync.com%3A6969","seeders":1,"leechers":0,"uploader":"greatindiaripper","files":7,"time":1472419484,"description":"General\r\n\r\nFormat                      : Matroska\r\nFormat version              : Version 4 / Version 2\r\nFile size                   : 74.1 MiB\r\nDuration                    : 20 min\r\nOverall bit rate            : 513 kb/s\r\nMovie name                  : tvf.tripling.S01E01[GreatIndiaRipper]\r\n\r\nVideo\r\nID                          : 1\r\nFormat                      : HEVC\r\nFormat/Info                 : High Efficiency Video Coding\r\nFormat profile              :   @Main\r\nCodec ID                    : V_MPEGH/ISO/HEVC\r\nDuration                    : 20 min\r\nBit rate                    : 414 kb/s\r\nWidth                       : 1 280 pixels\r\nHeight                      : 642 pixels\r\nDisplay aspect ratio        : 1.994\r\nFrame rate mode             : Constant\r\nFrame rate                  : 23.976 (24000/1001) FPS\r\nColor space                 : YUV\r\nChroma subsampling          : 4:2:0\r\nBit depth                   : 8 bits\r\nBits/(Pixel*Frame)          : 0.021\r\nStream size                 : 59.7 MiB (81%)\r\nWriting library             : x265 1.9:[Windows][GCC 4.9.0][64 bit] 8bit\r\n\r\n\r\nAudio\r\nID                          : 2\r\nFormat                      : AAC\r\nFormat/Info                 : Advanced Audio Codec\r\nFormat profile              : LC\r\nCodec ID                    : A_AAC\r\nDuration                    : 20 min\r\nBit rate                    : 96.0 kb/s\r\nChannel(s)                  : 2 channels\r\nChannel positions           : Front: L R\r\nSampling rate               : 48.0 kHz\r\nFrame rate                  : 46.875 FPS (1024 spf)\r\nCompression mode            : Lossy\r\nDelay relative to video     : -21 ms\r\nStream size                 : 14.1 MiB (19%)\r\nTitle                       : Stereo\r\nDefault                     : Yes\r\nForced                      : No","torrent":{"xt":"urn:btih:9264b4c585c773390e9efbac7f036f465be2bb9d","amp;dn":"tvf.tripling.S01E01.x265%5BGreatIndiaRipper%5D","amp;tr":["udp%3A%2F%2Ftracker.leechers-paradise.org%3A6969","udp%3A%2F%2Fzer0day.ch%3A1337","udp%3A%2F%2Fopen.demonii.com%3A1337","udp%3A%2F%2Ftracker.coppersurfer.tk%3A6969","udp%3A%2F%2Fexodus.desync.com%3A6969"],"infoHash":"9264b4c585c773390e9efbac7f036f465be2bb9d","infoHashBuffer":{"type":"Buffer","data":[146,100,180,197,133,199,115,57,14,158,251,172,127,3,111,70,91,226,187,157]},"announce":[],"urlList":[]}}